<?xml version="1.0" encoding="UTF-8" standalone="no"?>
<!-- Created with Inkscape (http://www.inkscape.org/) -->

<svg
   xmlns:dc="http://purl.org/dc/elements/1.1/"
   xmlns:cc="http://creativecommons.org/ns#"
   xmlns:rdf="http://www.w3.org/1999/02/22-rdf-syntax-ns#"
   xmlns:svg="http://www.w3.org/2000/svg"
   xmlns="http://www.w3.org/2000/svg"
   xmlns:xlink="http://www.w3.org/1999/xlink"
   xmlns:sodipodi="http://sodipodi.sourceforge.net/DTD/sodipodi-0.dtd"
   xmlns:inkscape="http://www.inkscape.org/namespaces/inkscape"
   width="200"
   height="110"
   viewBox="0 0 52.916666 29.104167"
   version="1.1"
   id="svg8"
   inkscape:version="0.92.2 (5c3e80d, 2017-08-06)"
   sodipodi:docname="logo.svg">
  <defs
     id="defs2">
    <inkscape:perspective
       sodipodi:type="inkscape:persp3d"
       inkscape:vp_x="-21.399201 : -2.9595677 : 1"
       inkscape:vp_y="0 : 611.26935 : 0"
       inkscape:vp_z="157.90702 : -2.9595677 : 1"
       inkscape:persp3d-origin="68.253921 : -23.661108 : 1"
       id="perspective4627" />
    <inkscape:perspective
       sodipodi:type="inkscape:persp3d"
       inkscape:vp_x="-18.569282 : -1.2950495 : 1"
       inkscape:vp_y="0 : 685.13661 : 0"
       inkscape:vp_z="150.02893 : -1.2950495 : 1"
       inkscape:persp3d-origin="65.729828 : -24.498211 : 1"
       id="perspective816" />
  </defs>
  <sodipodi:namedview
     id="base"
     pagecolor="#99a07a"
     bordercolor="#666666"
     borderopacity="1.0"
     inkscape:pageopacity="0"
     inkscape:pageshadow="2"
     inkscape:zoom="2.1496046"
     inkscape:cx="98.572484"
     inkscape:cy="50.128031"
     inkscape:document-units="px"
     inkscape:current-layer="layer1"
     showgrid="true"
     showguides="true"
     units="px"
     inkscape:window-width="1920"
     inkscape:window-height="1017"
     inkscape:window-x="-8"
     inkscape:window-y="-8"
     inkscape:window-maximized="1">
    <inkscape:grid
       type="xygrid"
       id="grid815"
       dotted="false" />
  </sodipodi:namedview>
  <metadata
     id="metadata5">
    <rdf:RDF>
      <cc:Work
         rdf:about="">
        <dc:format>image/svg+xml</dc:format>
        <dc:type
           rdf:resource="http://purl.org/dc/dcmitype/StillImage" />
        <dc:title></dc:title>
      </cc:Work>
    </rdf:RDF>
  </metadata>
  <g
     inkscape:label="Layer 1"
     inkscape:groupmode="layer"
     id="layer1"
     transform="translate(0,-267.89583)"
     style="display:inline">
    <rect
       style="fill:#00ffff;fill-opacity:0.77777782;stroke:#222b00;stroke-width:0.25577906;stroke-linecap:butt;stroke-linejoin:miter;stroke-miterlimit:4;stroke-dasharray:none;stroke-dashoffset:0;stroke-opacity:1"
       id="rect860"
       width="52.916668"
       height="29.104164"
       x="-1.637579e-015"
       y="267.89584" />
    <g
       id="g908"
       transform="matrix(0.00168897,0,0,0.00148224,5.8784767,268.40072)">
      <title
         id="title903">Layer 1</title>
      <g
         id="layer1-1">
        <g
           id="g6444">
          <path
             id="path5530"
             d="m 4580.9893,1444.395 c -877.0857,0 -1617.9681,630.4168 -1848.4842,1491.3203 -95.9626,-61.1584 -206.362,-96.3469 -324.3979,-96.3469 -365.0305,0 -661.2166,333.8274 -661.2166,745.2483 0,4.1909 -0.062,8.1787 0,12.3521 -109.3465,-25.2493 -223.9941,-39.5269 -342.6638,-39.5269 -723.5429,0 -1310.742928,501.1533 -1310.743172,1118.2847 0,617.1318 587.200332,1118.2846 1310.743172,1118.2846 286.5759,0 551.3682,-79.2099 767.1575,-212.4575 128.8767,434.5899 492.562,748.5425 921.3196,748.5425 290.5351,0 551.0527,-144.1768 729.165,-372.2124 172.7922,101.8735 375.991,160.5781 593.2683,160.5781 295.6279,0 565.416,-108.3857 767.8887,-286.5703 272.8345,319.1499 674.019,521.2622 1121.5102,521.2622 548.9771,0 1028.772,-304.4448 1286.6333,-755.9541 38.8194,6.4116 78.6455,9.8818 119.0918,9.8818 436.7329,0 790.5386,-387.1108 790.5386,-864.6533 0,-477.5415 -353.8057,-865.4765 -790.5386,-865.4765 -78.1489,0 -153.7129,13.1189 -225.0327,36.2331 C 7249.895,3600.5261 6898.042,3383.7654 6495.9614,3330.9854 6413.7134,2274.7739 5587.6685,1444.3948 4580.9893,1444.395 Z"
             stroke-miterlimit="4"
             inkscape:connector-curvature="0"
             style="fill:#ffffff;fill-rule:nonzero;stroke:#007fff;stroke-width:99;stroke-miterlimit:4;stroke-dashoffset:0" />
        </g>
      </g>
    </g>
    <use
       id="use921"
       inkscape:spray-origin="#g908"
       xlink:href="#g908"
       x="0"
       y="0"
       width="100%"
       height="100%"
       transform="translate(-5.7441663,3.8239249)" />
    <use
       id="use923"
       inkscape:spray-origin="#g908"
       xlink:href="#g908"
       x="0"
       y="0"
       width="100%"
       height="100%"
       transform="matrix(1.5657601,0.09978471,-0.05802805,0.98706434,40.790471,3.5578451)" />
    <use
       id="use929"
       inkscape:spray-origin="#g908"
       xlink:href="#g908"
       x="0"
       y="0"
       width="100%"
       height="100%"
       transform="matrix(1.1543916,0,0,1.0731107,10.213406,-21.102409)" />
  </g>
  <g
     inkscape:groupmode="layer"
     id="layer2"
     inkscape:label="Layer 2"
     style="display:inline"
     transform="translate(0,-174.09583)">
    <g
       id="g1089"
       transform="matrix(0.17510373,0,0,0.16173168,-2.4744078,172.40317)">
      <g
         inkscape:corner7="1.1333334 : 0.071797334 : 0.25 : 1"
         inkscape:corner0="1.5600001 : 0.11063111 : 0 : 1"
         inkscape:perspectiveID="#perspective4627"
         style="display:inline;fill:#784421;fill-opacity:1;stroke:#502d16;stroke-width:1.37952757;stroke-linecap:butt;stroke-linejoin:miter;stroke-miterlimit:4;stroke-dasharray:none;stroke-dashoffset:0;stroke-opacity:1"
         id="g818"
         sodipodi:type="inkscape:box3d">
        <path
           points="91.922407,152.71821 165.23201,157.70044 165.23201,105.46795 91.922407,95.384885 "
           d="m 91.922407,95.384885 v 57.333325 l 73.309603,4.98223 v -52.23249 z"
           inkscape:box3dsidetype="6"
           style="fill:#784421;fill-opacity:1;fill-rule:evenodd;stroke:#502d16;stroke-linejoin:round"
           id="path820"
           sodipodi:type="inkscape:box3dside" />
        <path
           points="214.16017,86.983931 214.16017,148.56714 165.23201,157.70044 165.23201,105.46795 "
           d="m 165.23201,105.46795 48.92816,-18.484019 v 61.583209 l -48.92816,9.1333 z"
           inkscape:box3dsidetype="11"
           style="fill:#784421;fill-opacity:1;fill-rule:evenodd;stroke:#502d16;stroke-linejoin:round"
           id="path830"
           sodipodi:type="inkscape:box3dside" />
        <path
           points="131.92241,72.718163 214.16017,86.983931 165.23201,105.46795 91.922407,95.384885 "
           d="M 91.922407,95.384885 131.92241,72.718163 214.16017,86.983931 165.23201,105.46795 Z"
           inkscape:box3dsidetype="5"
           style="fill:#784421;fill-opacity:1;fill-rule:evenodd;stroke:#502d16;stroke-linejoin:round"
           id="path822"
           sodipodi:type="inkscape:box3dside" />
        <path
           points="131.92241,141.51816 214.16017,148.56714 165.23201,157.70044 91.922407,152.71821 "
           d="m 91.922407,152.71821 40.000003,-11.20005 82.23776,7.04898 -48.92816,9.1333 z"
           inkscape:box3dsidetype="13"
           style="fill:#784421;fill-opacity:1;fill-rule:evenodd;stroke:#502d16;stroke-linejoin:round"
           id="path828"
           sodipodi:type="inkscape:box3dside" />
        <path
           points="131.92241,141.51816 214.16017,148.56714 214.16017,86.983931 131.92241,72.718163 "
           d="m 131.92241,72.718163 v 68.799997 l 82.23776,7.04898 V 86.983931 Z"
           inkscape:box3dsidetype="14"
           style="fill:#784421;fill-opacity:1;fill-rule:evenodd;stroke:#502d16;stroke-linejoin:round"
           id="path826"
           sodipodi:type="inkscape:box3dside" />
        <path
           points="131.92241,72.718163 131.92241,141.51816 91.922407,152.71821 91.922407,95.384885 "
           d="M 91.922407,95.384885 131.92241,72.718163 v 68.799997 l -40.000003,11.20005 z"
           inkscape:box3dsidetype="3"
           style="fill:#784421;fill-opacity:1;fill-rule:evenodd;stroke:#502d16;stroke-linejoin:round"
           id="path824"
           sodipodi:type="inkscape:box3dside" />
      </g>
      <g
         inkscape:corner7="1.8444445 : 0.045908149 : 0.25 : 1"
         inkscape:corner0="2.2000001 : 0.098213334 : 0 : 1"
         inkscape:perspectiveID="#perspective4627"
         style="display:inline;fill:#6c5d53;fill-opacity:1;stroke:#483e37;stroke-width:1.37952757;stroke-linecap:butt;stroke-linejoin:miter;stroke-miterlimit:4;stroke-dasharray:none;stroke-dashoffset:0;stroke-opacity:1"
         id="g846"
         sodipodi:type="inkscape:box3d">
        <path
           points="51.922404,194.49605 114.5311,195.52666 114.5311,138.22553 51.922404,132.71827 "
           d="m 51.922404,132.71827 v 61.77778 l 62.608696,1.03061 v -57.30113 z"
           inkscape:box3dsidetype="6"
           style="fill:#6c5d53;fill-opacity:1;fill-rule:evenodd;stroke:#483e37;stroke-linejoin:round"
           id="path848"
           sodipodi:type="inkscape:box3dside" />
        <path
           points="140.10912,130.1258 140.10912,194.0109 114.5311,195.52666 114.5311,138.22553 "
           d="m 114.5311,138.22553 25.57802,-8.09973 v 63.8851 l -25.57802,1.51576 z"
           inkscape:box3dsidetype="11"
           style="fill:#6c5d53;fill-opacity:1;fill-rule:evenodd;stroke:#483e37;stroke-linejoin:round"
           id="path858"
           sodipodi:type="inkscape:box3dside" />
        <path
           points="71.922409,123.21824 140.10912,130.1258 114.5311,138.22553 51.922404,132.71827 "
           d="m 51.922404,132.71827 20.000005,-9.50003 68.186711,6.90756 -25.57802,8.09973 z"
           inkscape:box3dsidetype="5"
           style="fill:#6c5d53;fill-opacity:1;fill-rule:evenodd;stroke:#483e37;stroke-linejoin:round"
           id="path850"
           sodipodi:type="inkscape:box3dside" />
        <path
           points="71.922409,192.71824 140.10912,194.0109 114.5311,195.52666 51.922404,194.49605 "
           d="m 51.922404,194.49605 20.000005,-1.77781 68.186711,1.29266 -25.57802,1.51576 z"
           inkscape:box3dsidetype="13"
           style="fill:#6c5d53;fill-opacity:1;fill-rule:evenodd;stroke:#483e37;stroke-linejoin:round"
           id="path856"
           sodipodi:type="inkscape:box3dside" />
        <path
           points="71.922409,192.71824 140.10912,194.0109 140.10912,130.1258 71.922409,123.21824 "
           d="m 71.922409,123.21824 v 69.5 l 68.186711,1.29266 v -63.8851 z"
           inkscape:box3dsidetype="14"
           style="fill:#6c5d53;fill-opacity:1;fill-rule:evenodd;stroke:#483e37;stroke-linejoin:round"
           id="path854"
           sodipodi:type="inkscape:box3dside" />
        <path
           points="71.922409,123.21824 71.922409,192.71824 51.922404,194.49605 51.922404,132.71827 "
           d="m 51.922404,132.71827 20.000005,-9.50003 v 69.5 l -20.000005,1.77781 z"
           inkscape:box3dsidetype="3"
           style="fill:#6c5d53;fill-opacity:1;fill-rule:evenodd;stroke:#483e37;stroke-linejoin:round"
           id="path852"
           sodipodi:type="inkscape:box3dside" />
      </g>
      <g
         sodipodi:type="inkscape:box3d"
         id="g1007"
         style="display:inline;fill:#803300;fill-opacity:1;stroke:#552200;stroke-width:1.37952757;stroke-linecap:butt;stroke-linejoin:miter;stroke-miterlimit:4;stroke-dasharray:none;stroke-dashoffset:0;stroke-opacity:1"
         inkscape:perspectiveID="#perspective4627"
         inkscape:corner0="1.1333334 : 0.08388513 : 0 : 1"
         inkscape:corner7="0.96923084 : 0.042897779 : 0.25 : 1">
        <path
           sodipodi:type="inkscape:box3dside"
           id="path995"
           style="fill:#803300;fill-opacity:1;fill-rule:evenodd;stroke:#552200;stroke-linejoin:round"
           inkscape:box3dsidetype="6"
           d="m 131.92241,120.10277 v 72.61539 l 82.23776,1.67835 v -64.99838 z"
           points="131.92241,192.71816 214.16017,194.39651 214.16017,129.39813 131.92241,120.10277 " />
        <path
           sodipodi:type="inkscape:box3dside"
           id="path997"
           style="fill:#803300;fill-opacity:1;fill-rule:evenodd;stroke:#552200;stroke-linejoin:round"
           inkscape:box3dsidetype="11"
           d="m 214.16017,129.39813 23.8281,-5.8654 v 69.80473 l -23.8281,1.05905 z"
           points="237.98827,123.53273 237.98827,193.33746 214.16017,194.39651 214.16017,129.39813 " />
        <path
           sodipodi:type="inkscape:box3dside"
           id="path999"
           style="fill:#803300;fill-opacity:1;fill-rule:evenodd;stroke:#552200;stroke-linejoin:round"
           inkscape:box3dsidetype="5"
           d="m 131.92241,120.10277 20,-7.38464 86.06586,10.8146 -23.8281,5.8654 z"
           points="151.92241,112.71813 237.98827,123.53273 214.16017,129.39813 131.92241,120.10277 " />
        <path
           sodipodi:type="inkscape:box3dside"
           id="path1001"
           style="fill:#803300;fill-opacity:1;fill-rule:evenodd;stroke:#552200;stroke-linejoin:round"
           inkscape:box3dsidetype="13"
           d="m 131.92241,192.71816 20,-1.33337 86.06586,1.95267 -23.8281,1.05905 z"
           points="151.92241,191.38479 237.98827,193.33746 214.16017,194.39651 131.92241,192.71816 " />
        <path
           sodipodi:type="inkscape:box3dside"
           id="path1003"
           style="fill:#803300;fill-opacity:1;fill-rule:evenodd;stroke:#552200;stroke-linejoin:round"
           inkscape:box3dsidetype="14"
           d="m 151.92241,112.71813 v 78.66666 l 86.06586,1.95267 v -69.80473 z"
           points="151.92241,191.38479 237.98827,193.33746 237.98827,123.53273 151.92241,112.71813 " />
        <path
           sodipodi:type="inkscape:box3dside"
           id="path1005"
           style="fill:#803300;fill-opacity:1;fill-rule:evenodd;stroke:#552200;stroke-linejoin:round"
           inkscape:box3dsidetype="3"
           d="m 131.92241,120.10277 20,-7.38464 v 78.66666 l -20,1.33337 z"
           points="151.92241,112.71813 151.92241,191.38479 131.92241,192.71816 131.92241,120.10277 " />
      </g>
      <g
         inkscape:corner7="0.60000006 : 0.040640001 : 0.12113936 : 1"
         inkscape:corner0="0.70666673 : 0.069170102 : 0 : 1"
         inkscape:perspectiveID="#perspective4627"
         style="fill:#782121;fill-opacity:1;stroke:#501616;stroke-width:1.37952757;stroke-linecap:butt;stroke-linejoin:miter;stroke-miterlimit:4;stroke-dasharray:none;stroke-dashoffset:0;stroke-opacity:1"
         id="g1013"
         sodipodi:type="inkscape:box3d">
        <path
           points="191.92242,193.71807 239.90612,194.71224 239.90612,135.71785 191.92242,130.53626 "
           d="m 191.92242,130.53626 v 63.18181 l 47.9837,0.99417 v -58.99439 z"
           inkscape:box3dsidetype="6"
           style="fill:#782121;fill-rule:evenodd;stroke:#501616;stroke-linejoin:round"
           id="path1015"
           sodipodi:type="inkscape:box3dside" />
        <path
           points="261.47222,131.19367 261.47222,193.84421 239.90612,194.71224 239.90612,135.71785 "
           d="m 239.90612,135.71785 21.5661,-4.52418 v 62.65054 l -21.5661,0.86803 z"
           inkscape:box3dsidetype="11"
           style="fill:#782121;fill-rule:evenodd;stroke:#501616;stroke-linejoin:round"
           id="path1025"
           sodipodi:type="inkscape:box3dside" />
        <path
           points="211.92242,125.32411 261.47222,131.19367 239.90612,135.71785 191.92242,130.53626 "
           d="m 191.92242,130.53626 20,-5.21215 49.5498,5.86956 -21.5661,4.52418 z"
           inkscape:box3dsidetype="5"
           style="fill:#782121;fill-rule:evenodd;stroke:#501616;stroke-linejoin:round"
           id="path1017"
           sodipodi:type="inkscape:box3dside" />
        <path
           points="211.92242,192.71804 261.47222,193.84421 239.90612,194.71224 191.92242,193.71807 "
           d="m 191.92242,193.71807 20,-1.00003 49.5498,1.12617 -21.5661,0.86803 z"
           inkscape:box3dsidetype="13"
           style="fill:#782121;fill-rule:evenodd;stroke:#501616;stroke-linejoin:round"
           id="path1023"
           sodipodi:type="inkscape:box3dside" />
        <path
           points="211.92242,192.71804 261.47222,193.84421 261.47222,131.19367 211.92242,125.32411 "
           d="m 211.92242,125.32411 v 67.39393 l 49.5498,1.12617 v -62.65054 z"
           inkscape:box3dsidetype="14"
           style="fill:#782121;fill-rule:evenodd;stroke:#501616;stroke-linejoin:round"
           id="path1021"
           sodipodi:type="inkscape:box3dside" />
        <path
           points="211.92242,125.32411 211.92242,192.71804 191.92242,193.71807 191.92242,130.53626 "
           d="m 191.92242,130.53626 20,-5.21215 v 67.39393 l -20,1.00003 z"
           inkscape:box3dsidetype="3"
           style="fill:#782121;fill-rule:evenodd;stroke:#501616;stroke-linejoin:round"
           id="path1019"
           sodipodi:type="inkscape:box3dside" />
      </g>
    </g>
  </g>
</svg>
